<?xml version="1.0" encoding="UTF-8" standalone="no"?>
<!DOCTYPE svg PUBLIC "-//W3C//DTD SVG 1.1//EN" "http://www.w3.org/Graphics/SVG/1.1/DTD/svg11.dtd">
<svg width="100%" height="100%" viewBox="0 0 1080 1080" version="1.1" xmlns="http://www.w3.org/2000/svg" xmlns:xlink="http://www.w3.org/1999/xlink" xml:space="preserve" xmlns:serif="http://www.serif.com/" style="fill-rule:evenodd;clip-rule:evenodd;stroke-linejoin:round;stroke-miterlimit:2;">
    <rect x="0" y="0" width="1080" height="1080"/>
    <g transform="matrix(1,0,0,1,48.4722,245.623)">
        <g transform="matrix(800,0,0,800,137.622,559.221)">
            <path d="M0.409,-0L0.153,-0.557L0.153,-0.115C0.153,-0.074 0.158,-0.049 0.167,-0.039C0.179,-0.025 0.198,-0.018 0.224,-0.018L0.247,-0.018L0.247,-0L0.017,-0L0.017,-0.018L0.04,-0.018C0.068,-0.018 0.088,-0.027 0.1,-0.043C0.107,-0.054 0.11,-0.078 0.11,-0.115L0.11,-0.547C0.11,-0.577 0.107,-0.598 0.101,-0.611C0.096,-0.62 0.088,-0.628 0.075,-0.635C0.063,-0.641 0.044,-0.644 0.017,-0.644L0.017,-0.662L0.204,-0.662L0.444,-0.144L0.681,-0.662L0.868,-0.662L0.868,-0.644L0.845,-0.644C0.817,-0.644 0.797,-0.636 0.785,-0.619C0.778,-0.608 0.774,-0.584 0.774,-0.547L0.774,-0.115C0.774,-0.074 0.779,-0.049 0.788,-0.039C0.8,-0.025 0.819,-0.018 0.845,-0.018L0.868,-0.018L0.868,-0L0.587,-0L0.587,-0.018L0.61,-0.018C0.639,-0.018 0.659,-0.027 0.67,-0.043C0.677,-0.054 0.681,-0.078 0.681,-0.115L0.681,-0.557L0.425,-0L0.409,-0Z" style="fill:white;fill-rule:nonzero;"/>
        </g>
    </g>
</svg>
