<svg style="fill: #666" viewBox="0 0 1024 1024" version="1.1" xmlns="http://www.w3.org/2000/svg"><path d="M832 384l0 448L256 832 256 384 832 384M832 320 256 320C220.672 320 192 348.608 192 384l0 448c0 35.392 28.672 64 64 64l576 0c35.392 0 64-28.608 64-64L896 384C896 348.608 867.392 320 832 320L832 320zM864 192 768 192 768 160C768 142.336 753.664 128 736 128S704 142.336 704 160L704 192 384 192 384 160C384 142.336 369.664 128 352 128S320 142.336 320 160L320 192 224 192C206.336 192 192 206.336 192 224S206.336 256 224 256l640 0C881.664 256 896 241.664 896 224S881.664 192 864 192zM384 448 320 448l0 64 64 0L384 448zM512 448 448 448l0 64 64 0L512 448zM640 448 576 448l0 64 64 0L640 448zM768 448l-64 0 0 64 64 0L768 448zM384 576 320 576l0 64 64 0L384 576zM512 576 448 576l0 64 64 0L512 576zM640 576 576 576l0 64 64 0L640 576zM768 576l-64 0 0 64 64 0L768 576zM384 704 320 704l0 64 64 0L384 704zM512 704 448 704l0 64 64 0L512 704zM640 704 576 704l0 64 64 0L640 704zM768 704l-64 0 0 64 64 0L768 704z"  /></svg>